<?xml version="1.0" encoding="utf-8"?>
<!-- Generator: Adobe Illustrator 23.1.0, SVG Export Plug-In . SVG Version: 6.00 Build 0)  -->
<svg version="1.1" id="レイヤー_1" xmlns="http://www.w3.org/2000/svg" xmlns:xlink="http://www.w3.org/1999/xlink" x="0px"
	 y="0px" viewBox="0 0 1200 500" style="enable-background:new 0 0 1200 500;" xml:space="preserve">
<g>
	<polygon points="964.78,49.45 942.75,49.45 921.7,173.41 895.4,49.45 880.17,49.45 853.86,173.41 832.92,49.45 810.9,49.45 
		841.25,208.81 864.05,208.81 888.5,99.1 911.62,208.81 934.31,208.81 	"/>
	<rect x="982.2" y="49.45" width="21.59" height="159.36"/>
	<polygon points="1110,141.3 1110,120.91 1055.97,120.91 1055.97,69.95 1118.77,69.95 1118.77,49.45 1055.97,49.45 1045.33,49.45 
		1034.37,49.45 1034.37,208.81 1055.97,208.81 1055.97,141.3 	"/>
	<rect x="1138.39" y="49.45" width="21.59" height="159.36"/>
	<polygon points="50.98,292.83 40.02,292.83 40.02,452.19 61.61,452.19 61.61,384.68 115.65,384.68 115.65,364.29 61.61,364.29 
		61.61,313.32 124.41,313.32 124.41,292.83 61.61,292.83 	"/>
	<path d="M219.47,297.16c-7.2-3.98-15.66-5.97-25.37-5.97c-9.72,0-18.18,1.99-25.37,5.97c-7.2,3.98-12.73,9.68-16.61,17.1
		c-3.87,7.42-5.81,16.17-5.81,26.25v64.01c0,10.01,1.93,18.74,5.81,26.2c3.87,7.45,9.41,13.17,16.61,17.15
		c7.2,3.98,15.65,5.97,25.37,5.97c9.72,0,18.18-1.99,25.37-5.97c7.2-3.98,12.73-9.7,16.61-17.15c3.87-7.45,5.81-16.18,5.81-26.2
		v-64.01c0-10.08-1.94-18.83-5.81-26.25C232.21,306.84,226.67,301.14,219.47,297.16z M219.97,405.17c0,5.63-1.04,10.51-3.12,14.63
		c-2.08,4.13-5.08,7.31-8.99,9.54c-3.91,2.23-8.49,3.34-13.75,3.34c-5.26,0-9.85-1.11-13.75-3.34c-3.91-2.23-6.92-5.41-9.04-9.54
		c-2.12-4.13-3.18-9-3.18-14.63v-65.32c0-5.63,1.06-10.5,3.18-14.63c2.12-4.13,5.13-7.31,9.04-9.54c3.91-2.23,8.49-3.34,13.75-3.34
		c5.26,0,9.85,1.11,13.75,3.34c3.91,2.23,6.91,5.41,8.99,9.54c2.08,4.13,3.12,9.01,3.12,14.63V405.17z"/>
	<path d="M343.8,406.27c0,8.48-2.14,15-6.41,19.56c-4.28,4.57-10.36,6.85-18.25,6.85c-7.82,0-13.85-2.28-18.08-6.85
		c-4.24-4.57-6.36-11.09-6.36-19.56V292.83h-21.59V405.5c0,10.23,1.79,18.96,5.37,26.2c3.58,7.23,8.8,12.73,15.67,16.5
		c6.87,3.76,15.2,5.64,24.99,5.64c9.79,0,18.14-1.88,25.04-5.64c6.91-3.76,12.17-9.26,15.78-16.5c3.62-7.23,5.42-15.96,5.42-26.2
		V292.83H343.8V406.27z"/>
	<polygon points="475.19,409.29 417.43,292.83 398.25,292.83 398.25,452.08 419.19,452.08 419.19,338.15 476.73,452.08 
		496.24,452.08 496.24,292.83 475.19,292.83 	"/>
	<path d="M602.2,298.09c-7.01-3.51-15.49-5.26-25.43-5.26h-24.44h-7.45h-14.14v159.36h14.14h7.45h24.33
		c9.94,0,18.43-1.75,25.48-5.26c7.05-3.51,12.42-8.66,16.11-15.45c3.69-6.8,5.54-14.94,5.54-24.44v-69.05
		c0-9.57-1.85-17.74-5.54-24.5C614.57,306.73,609.22,301.6,602.2,298.09z M601.87,407.69c0,7.67-2.12,13.59-6.36,17.76
		c-4.24,4.16-10.27,6.25-18.08,6.25h-25.1V313.32h25.1c7.82,0,13.85,2.08,18.08,6.25c4.24,4.16,6.36,10.08,6.36,17.76V407.69z"/>
	<path d="M692.93,292.83l-47.79,159.36h23.24l9.31-34.85h49.55l9.31,34.85h23.23L712,292.83H692.93z M683.14,396.95l19.33-72.34
		l19.33,72.34H683.14z"/>
	<polygon points="766.35,313.32 802.95,313.32 802.95,452.19 824.55,452.19 824.55,313.32 861.26,313.32 861.26,292.83 
		766.35,292.83 	"/>
	<rect x="879.22" y="292.83" width="21.59" height="159.36"/>
	<path d="M1006.72,297.16c-7.2-3.98-15.66-5.97-25.37-5.97c-9.72,0-18.18,1.99-25.37,5.97c-7.2,3.98-12.73,9.68-16.61,17.1
		c-3.87,7.42-5.81,16.17-5.81,26.25v64.01c0,10.01,1.93,18.74,5.81,26.2c3.87,7.45,9.41,13.17,16.61,17.15
		c7.2,3.98,15.65,5.97,25.37,5.97c9.72,0,18.18-1.99,25.37-5.97c7.2-3.98,12.73-9.7,16.61-17.15c3.87-7.45,5.81-16.18,5.81-26.2
		v-64.01c0-10.08-1.94-18.83-5.81-26.25C1019.45,306.84,1013.92,301.14,1006.72,297.16z M1007.21,405.17
		c0,5.63-1.04,10.51-3.12,14.63c-2.08,4.13-5.08,7.31-8.99,9.54c-3.91,2.23-8.49,3.34-13.75,3.34c-5.26,0-9.85-1.11-13.75-3.34
		c-3.91-2.23-6.92-5.41-9.04-9.54c-2.12-4.13-3.18-9-3.18-14.63v-65.32c0-5.63,1.06-10.5,3.18-14.63c2.12-4.13,5.13-7.31,9.04-9.54
		c3.91-2.23,8.49-3.34,13.75-3.34c5.26,0,9.85,1.11,13.75,3.34c3.91,2.23,6.91,5.41,8.99,9.54c2.08,4.13,3.12,9.01,3.12,14.63
		V405.17z"/>
	<polygon points="1138.94,409.29 1081.18,292.83 1061.99,292.83 1061.99,452.08 1082.93,452.08 1082.93,338.15 1140.47,452.08 
		1159.98,452.08 1159.98,292.83 1138.94,292.83 	"/>
	<polygon points="138.11,47.81 113.01,47.81 61.61,129.43 61.61,47.81 40.02,47.81 40.02,207.17 61.61,207.17 61.61,163.16 
		82.64,131.46 118.49,207.17 144.03,207.17 96.47,110.59 	"/>
	<path d="M200.02,47.81l-47.78,159.36h23.24l9.31-34.85h49.55l9.31,34.85h23.24L219.09,47.81H200.02z M190.23,151.93l19.33-72.34
		l19.33,72.34H190.23z"/>
	<polygon points="366.81,164.27 309.05,47.81 289.87,47.81 289.87,207.06 310.81,207.06 310.81,93.12 368.35,207.06 387.86,207.06 
		387.86,47.81 366.81,47.81 	"/>
	<path d="M495.03,125.3c-5.19-2.63-11.84-5.15-19.95-7.56c-0.37-0.07-0.7-0.16-0.99-0.27c-0.29-0.11-0.62-0.2-0.99-0.27
		c-0.29-0.07-0.59-0.16-0.87-0.27c-0.3-0.11-0.62-0.2-0.99-0.27c-6.65-1.9-11.87-3.65-15.67-5.26c-3.8-1.61-6.98-3.91-9.54-6.9
		c-2.56-3-3.84-6.91-3.84-11.73V87.7c0-6.65,2.27-11.78,6.8-15.4c4.53-3.62,10.96-5.42,19.29-5.42c5.48,0,10.23,1.77,14.25,5.32
		c4.02,3.54,6.98,8.64,8.88,15.29l20.17-8.99c-1.9-6.94-4.82-12.82-8.77-17.65c-3.95-4.82-8.82-8.47-14.63-10.96
		c-5.81-2.48-12.44-3.73-19.89-3.73c-10.08,0-18.67,1.63-25.76,4.88c-7.09,3.25-12.48,8-16.17,14.25s-5.53,13.79-5.53,22.63v4.71
		c0,9.72,1.93,17.39,5.81,23.02c3.87,5.63,8.57,9.75,14.08,12.38c5.52,2.63,12.66,5.15,21.43,7.56l1.32,0.33
		c0.15,0.07,0.28,0.13,0.39,0.16c0.11,0.04,0.24,0.09,0.38,0.16c6.14,1.75,11.13,3.43,14.96,5.04c3.84,1.61,6.94,3.91,9.32,6.9
		c2.37,3,3.56,6.87,3.56,11.62v7.02c0,6.8-2.34,12.04-7.02,15.73c-4.67,3.69-11.29,5.54-19.84,5.54c-6.94,0-12.79-1.88-17.53-5.64
		c-4.75-3.76-8.08-9.19-9.97-16.28l-20.82,8.88c1.82,7.23,4.91,13.37,9.26,18.41c4.35,5.04,9.83,8.86,16.44,11.45
		c6.61,2.59,9.92,3.89,9.92,3.89s4.24,0,12.71,0c10.23,0,18.96-1.63,26.2-4.88c7.23-3.25,12.75-8,16.55-14.25s5.7-13.83,5.7-22.74
		v-7.34c0-9.28-1.81-16.66-5.42-22.14C504.62,131.98,500.22,127.93,495.03,125.3z"/>
	<path d="M564.71,172.32h49.55l9.31,34.85h23.24L599.02,47.81h-19.07l-47.78,159.36h23.24L564.71,172.32z M589.49,79.59l19.33,72.34
		h-38.65L589.49,79.59z"/>
	<rect x="669.7" y="47.81" width="21.59" height="159.36"/>
</g>
</svg>
